P2
# a standard chessboard
10 10
255
255 0 255 0 255 0 255 0 255 0
0 255 0 255 0 255 0 255 0 255
255 0 255 0 255 0 255 0 255 0
0 255 0 255 0 255 0 255 0 255
255 0 255 0 255 0 255 0 255 0
0 255 0 255 0 255 0 255 0 255
255 0 255 0 255 0 255 0 255 0
0 255 0 255 0 255 0 255 0 255
255 0 255 0 255 0 255 0 255 0
0 255 0 255 0 255 0 255 0 255